<?xml version="1.0" encoding="UTF-8" standalone="no"?>
<svg
   version="1.1"
   x="0px"
   y="0px"
   viewBox="0 0 100 100"
   enable-background="new 0 0 100 100"
   xml:space="preserve"
   id="svg7"
   sodipodi:docname="windmill.svg"
   width="100"
   height="100"
   inkscape:version="1.4 (e7c3feb1, 2024-10-09)"
   xmlns:inkscape="http://www.inkscape.org/namespaces/inkscape"
   xmlns:sodipodi="http://sodipodi.sourceforge.net/DTD/sodipodi-0.dtd"
   xmlns="http://www.w3.org/2000/svg"
   xmlns:svg="http://www.w3.org/2000/svg"><defs
     id="defs7" /><sodipodi:namedview
     id="namedview7"
     pagecolor="#ffffff"
     bordercolor="#000000"
     borderopacity="0.25"
     inkscape:showpageshadow="2"
     inkscape:pageopacity="0.0"
     inkscape:pagecheckerboard="0"
     inkscape:deskcolor="#d1d1d1"
     inkscape:zoom="4.7065027"
     inkscape:cx="62.573001"
     inkscape:cy="42.281926"
     inkscape:window-width="1280"
     inkscape:window-height="1027"
     inkscape:window-x="0"
     inkscape:window-y="25"
     inkscape:window-maximized="0"
     inkscape:current-layer="svg7" /><g
     id="g6"
     transform="matrix(1.4636684,0,0,1.4636684,-23.441034,-22.855569)"><g
       id="g4"><path
         d="m 29.928,67.741 -2.113,-2.777 2.938,-2.234 7.383,-5.616 0.294,-5.499 -10.233,7.785 -4.593,3.491 c 0,0.003 -0.002,0.003 -0.003,0.003 -0.002,0.003 -0.003,0.003 -0.005,0.006 l -0.03,0.021 c -0.923,0.703 -1.102,2.021 -0.399,2.942 0.079,0.106 0.173,0.191 0.267,0.276 l 4.424,5.812 c 0.001,0 0.001,0.003 0.003,0.003 0.413,0.544 1.039,0.829 1.673,0.829 0.222,0 0.444,-0.036 0.658,-0.104 0.003,-0.003 0.005,-0.003 0.006,-0.005 0.213,-0.068 0.418,-0.176 0.605,-0.317 l 6.426,-4.89 0.564,-5.706 z"
         id="path1" /><path
         d="m 61.689,45.47 0.133,2.48 0.693,-0.707 13.477,13.211 -2.443,2.494 -11.529,-11.301 0.334,6.207 9.789,9.598 c 0.408,0.398 0.939,0.599 1.469,0.599 0.545,0 1.09,-0.211 1.5,-0.629 0.061,-0.063 0.086,-0.146 0.137,-0.211 l 5.213,-5.315 v 0 c 0.609,-0.621 0.754,-1.523 0.439,-2.28 -0.105,-0.252 -0.262,-0.487 -0.467,-0.689 L 63.955,42.774 c -0.828,-0.812 -2.156,-0.799 -2.969,0.028 l -0.613,0.625 0.668,0.636 c 0.389,0.371 0.619,0.874 0.648,1.407 z"
         id="path2" /><path
         d="m 19.538,26.66 c 0.001,0 0.002,0 0.002,0.002 L 36.017,42.81 c 0.089,0.088 0.201,0.128 0.301,0.196 0.356,0.246 0.754,0.404 1.169,0.404 0.544,0 1.088,-0.211 1.499,-0.629 l 0.001,-10e-4 3.915,-3.992 1.002,0.982 3.041,-2.901 -2.601,-2.548 c 0,-0.002 0,-0.003 0,-0.003 -10e-4,0 -10e-4,0 -0.002,0 L 39.759,29.826 27.866,18.17 C 27.865,18.169 27.865,18.167 27.864,18.167 27.863,18.166 27.862,18.166 27.86,18.165 l -0.03,-0.03 c -0.828,-0.812 -2.157,-0.799 -2.97,0.03 -0.058,0.059 -0.08,0.135 -0.129,0.199 l -5.223,5.326 c -0.188,0.191 -0.321,0.416 -0.422,0.648 -0.171,0.402 -0.184,0.835 -0.094,1.257 0.085,0.39 0.24,0.766 0.546,1.065 z m 6.885,-4.022 10.396,10.188 3.083,3.021 -2.445,2.494 -13.478,-13.21 z"
         id="path3" /><path
         d="m 60.365,40.204 h 0.002 l 0.002,-0.002 18.398,-13.996 c 0.924,-0.702 1.102,-2.021 0.4,-2.943 -0.092,-0.119 -0.191,-0.224 -0.301,-0.318 l -4.393,-5.776 c -0.701,-0.923 -2.02,-1.104 -2.943,-0.4 l -18.365,13.97 c -0.924,0.701 -1.102,2.018 -0.398,2.942 l 3.385,4.451 -0.738,0.561 3.076,2.938 z m 12.037,-18.821 2.113,2.778 -15.021,11.427 -2.115,-2.78 z"
         id="path4" /></g><path
       d="M 54.111,61.311 H 46.66 c -1.16,0 -2.101,-0.94 -2.101,-2.101 v -9.25 c 0,-1.159 0.94,-2.1 2.101,-2.1 h 7.452 c 1.16,0 2.102,0.94 2.102,2.1 v 9.25 c -10e-4,1.16 -0.943,2.101 -2.103,2.101 z M 48.759,57.11 h 3.252 v -5.05 h -3.252 z"
       id="path5" /><path
       d="M 62.506,83.661 H 37.941 c -0.593,0 -1.158,-0.249 -1.557,-0.689 -0.397,-0.439 -0.592,-1.027 -0.533,-1.615 l 2.146,-21.67 0.76,-14.217 c 0.028,-0.533 0.261,-1.036 0.647,-1.406 l 8.442,-8.055 c 0.391,-0.371 0.909,-0.579 1.449,-0.579 h 1.854 c 0.541,0 1.059,0.208 1.449,0.579 l 8.441,8.055 c 0.389,0.37 0.619,0.873 0.648,1.406 l 0.766,14.31 2.141,21.577 c 0.057,0.588 -0.137,1.176 -0.533,1.615 -0.397,0.44 -0.963,0.689 -1.555,0.689 z m -22.247,-4.2 H 60.187 L 58.267,60.099 57.538,46.529 50.31,39.63 h -0.173 l -7.23,6.897 -0.722,13.476 z"
       id="path6" /></g></svg>
